<svg fill="none" height="92" viewBox="0 0 92 92" width="92" xmlns="http://www.w3.org/2000/svg"><g fill="#fff"><path d="m22.9499 66.1846h8.4827v-20.6009l-12.1181-9.0886v26.0541c0 2.0116 1.6298 3.6354 3.6354 3.6354z"/><path d="m60.5156 66.1846h8.4827c2.0117 0 3.6355-1.6299 3.6355-3.6354v-26.0541l-12.1182 9.0886"/><path d="m60.5156 29.8303v15.7536l12.1182-9.0886v-4.8472c0-4.4959-5.1321-7.0589-8.7251-4.3626"/><path d="m31.4336 45.5837v-15.7536l14.5418 10.9063 14.5418-10.9063v15.7536l-14.5418 10.9063"/><path d="m19.3145 31.6481v4.8472l12.1181 9.0886v-15.7536l-3.3931-2.5448c-3.5991-2.6963-8.725-.1333-8.725 4.3626z"/></g></svg>